<svg width="450" height="150" viewBox="0 0 450 150" fill="none" xmlns="http://www.w3.org/2000/svg">
<path d="M295.11 80.6367V140.941H282.073L253.906 101.755V140.941H241.416V86.2728L238.562 80.6367H254.71L282.615 120.361V80.6367H295.11Z" fill="black"/>
<path d="M165.311 141.983C169.391 142.043 173.441 141.288 177.226 139.762C180.76 138.332 183.972 136.209 186.672 133.517C189.35 130.817 191.468 127.615 192.907 124.095C193.997 121.452 194.705 118.667 195.009 115.824C195.234 113.021 195.27 110.207 195.119 107.4H165.435L160.151 118.297H181.33C180.559 121.674 178.591 124.658 175.789 126.696C172.91 128.827 169.466 129.883 165.459 129.864C162.972 129.875 160.513 129.349 158.248 128.323C156.059 127.341 154.081 125.946 152.422 124.214C150.75 122.456 149.434 120.392 148.545 118.135C146.675 113.349 146.701 108.03 148.617 103.262C149.53 101.015 150.869 98.9656 152.56 97.2265C154.219 95.5214 156.197 94.159 158.381 93.217C160.648 92.2398 163.095 91.7535 165.563 91.7901C168.809 91.7468 172.009 92.5676 174.833 94.1683C177.535 95.7458 179.709 98.0896 181.078 100.903L192.793 95.286C190.411 90.4672 186.645 86.4692 181.977 83.8043C177.221 81.0267 171.799 79.6236 165.711 79.595C161.52 79.5509 157.364 80.3601 153.497 81.9732C149.747 83.5218 146.334 85.7832 143.447 88.6319C140.582 91.4758 138.277 94.8315 136.65 98.525C134.962 102.339 134.093 106.464 134.1 110.634C134.049 114.798 134.859 118.927 136.479 122.763C138.038 126.469 140.283 129.848 143.095 132.723C145.995 135.667 149.453 138.003 153.267 139.595C157.081 141.187 161.174 142.002 165.306 141.993L165.311 141.983Z" fill="black"/>
<path d="M67.9264 80.6271H52.0261L55.0273 86.8674V134.715L52.0261 140.941H88.5163L91.8266 129.141H67.9264V80.6271Z" fill="black"/>
<path d="M96.231 140.941H131.794V129.146H109.178V115.919H126.666L129.829 104.575H109.178V92.3751H131.794V80.6271H96.231V140.941Z" fill="black"/>
<path d="M199.637 140.941H235.205V129.146H212.584V115.919H230.073L233.236 104.575H212.584V92.3751H235.205V80.6271H199.637V140.941Z" fill="black"/>
<path d="M222.42 71.1098C226.499 71.1709 230.55 70.4157 234.334 68.8887C237.867 67.4613 241.078 65.3393 243.775 62.6484C246.457 59.9502 248.578 56.748 250.016 53.2262C251.108 50.584 251.814 47.7984 252.113 44.9551C252.34 42.1546 252.376 39.3419 252.222 36.5365H222.539L217.259 47.4283H238.439C237.666 50.804 235.698 53.786 232.898 55.8232C230.022 57.9603 226.578 59.0178 222.567 58.9956C220.08 59.001 217.62 58.4756 215.352 57.4546C210.909 55.4566 207.426 51.7975 205.649 47.2619C203.784 42.4763 203.811 37.16 205.725 32.3938C206.637 30.1457 207.974 28.0947 209.663 26.3533C211.325 24.6512 213.302 23.2892 215.485 22.3437C217.755 21.3715 220.203 20.8854 222.672 20.9169C225.918 20.875 229.117 21.6956 231.942 23.295C234.643 24.8728 236.814 27.2167 238.182 30.0299L249.901 24.4175C247.52 19.5973 243.754 15.5977 239.086 12.9311C234.31 10.1502 228.888 8.74397 222.819 8.71226C218.627 8.66391 214.469 9.47319 210.6 11.0904C206.852 12.6374 203.44 14.899 200.555 17.7492C197.689 20.5913 195.383 23.9474 193.758 27.6422C192.066 31.4529 191.196 35.5774 191.204 39.747C191.153 43.9105 191.962 48.0397 193.582 51.8755C195.14 55.5899 197.383 58.9782 200.194 61.8636C203.094 64.8088 206.553 67.1454 210.368 68.7364C214.183 70.3274 218.277 71.1408 222.41 71.1289L222.42 71.1098Z" fill="black"/>
<path d="M67.9264 9.75864H52.0261L55.0273 15.9989V63.847L52.0261 70.073H88.5163L91.8266 58.2726H67.9264V9.75864Z" fill="black"/>
<path d="M96.231 70.073H131.794V58.2774H109.178V45.0454H126.666L129.829 33.7065H109.178V21.5066H131.794V9.75864H96.231V70.073Z" fill="black"/>
<path d="M310.749 70.073H346.311V58.2774H323.69V45.0454H341.184L344.347 33.7065H323.69V21.5066H346.311V9.75864H310.749V70.073Z" fill="black"/>
<path d="M171.67 9.75864H153.273L157.164 17.4638L135.922 70.0777H149.154L153.687 58.3107H177.611L182.224 70.0777H195.708L171.67 9.75864ZM158.082 46.7815L165.849 26.5007L173.311 46.7672L158.082 46.7815Z" fill="black"/>
<path d="M380.104 26.3485V53.4736H386.763V44.3035H393.646L395.31 38.3343H386.763V32.4936H396.537V26.3485H380.104Z" fill="black"/>
<path d="M363.629 25.8063C360.838 25.8016 358.11 26.6247 355.787 28.1714C353.465 29.7181 351.654 31.919 350.583 34.4954C349.512 37.0719 349.229 39.9081 349.771 42.6453C350.312 45.3824 351.653 47.8975 353.625 49.8721C355.596 51.8467 358.109 53.1922 360.845 53.7383C363.581 54.2844 366.418 54.0065 368.996 52.9398C371.574 51.8731 373.778 50.0656 375.329 47.746C376.879 45.4263 377.707 42.6989 377.707 39.9087C377.706 36.173 376.223 32.5903 373.584 29.9466C370.944 27.3028 367.364 25.8139 363.629 25.8063ZM363.629 47.4664C362.133 47.4711 360.669 47.0318 359.423 46.2043C358.177 45.3767 357.205 44.198 356.629 42.8174C356.054 41.4368 355.901 39.9165 356.189 38.4489C356.478 36.9812 357.196 35.6324 358.252 34.573C359.308 33.5137 360.655 32.7915 362.122 32.4979C363.588 32.2044 365.109 32.3527 366.492 32.924C367.874 33.4953 369.056 34.464 369.887 35.7074C370.719 36.9507 371.163 38.4129 371.163 39.9087C371.165 41.9098 370.373 43.83 368.96 45.2472C367.547 46.6644 365.63 47.4626 363.629 47.4664Z" fill="black"/>
<path d="M280.917 71.1193C277.451 71.1756 274.006 70.5769 270.762 69.3548C267.897 68.2578 265.311 66.5392 263.19 64.3226C261.073 62.0409 259.454 59.3442 258.434 56.4034C257.277 53.0857 256.708 49.5911 256.755 46.0776V9.75864H269.835V45.3879C269.835 49.4656 270.786 52.6793 272.689 55.0289C274.591 57.3785 277.345 58.5533 280.95 58.5533C284.565 58.5533 287.319 57.3785 289.212 55.0289C291.105 52.6793 292.056 49.4656 292.066 45.3879V9.75864H305.15V46.0776C305.195 49.5909 304.627 53.0851 303.471 56.4034C302.452 59.3442 300.832 62.0409 298.715 64.3226C296.591 66.5382 294.004 68.2566 291.138 69.3548C287.874 70.5852 284.405 71.184 280.917 71.1193Z" fill="black"/>
<path d="M381.037 105.174L372.894 103.614C369.232 102.906 367.215 100.851 367.215 97.8258C367.215 93.6974 371.443 91.2289 375.538 91.2289C376.932 91.2289 383.867 91.5903 385.294 98.506L396.514 93.0267C394.858 88.104 389.902 79.576 375.453 79.576C363.805 79.576 354.325 88.1373 354.325 98.6487C354.325 107.567 360.29 114.107 370.273 116.137L378.421 117.783C382.445 118.592 384.846 120.875 384.846 123.904C384.846 127.819 381.517 130.197 376.195 130.249C369.721 130.316 364.485 125.493 363.676 120.765L352.894 126.782C355.367 134.834 362.987 142.002 376.109 142.002C384.366 142.002 389.465 138.811 392.281 136.133C394.059 134.472 395.481 132.467 396.462 130.24C397.444 128.013 397.963 125.61 397.988 123.177C397.974 114.092 391.5 107.2 381.037 105.174Z" fill="black"/>
<path d="M349.317 99.0434C347.774 95.4634 345.542 92.2216 342.749 89.5023C339.932 86.7818 336.623 84.6221 332.998 83.1384C329.279 81.5927 323.961 80.6271 321.146 80.6271H300.756V140.937H321.108C329.164 140.979 336.919 137.875 342.72 132.285C345.515 129.576 347.75 126.344 349.298 122.772C350.884 119.021 351.702 114.99 351.702 110.917C351.702 106.845 350.884 102.814 349.298 99.0625L349.317 99.0434ZM337.108 117.935C336.232 120.046 334.962 121.971 333.365 123.605C331.752 125.226 329.839 126.518 327.733 127.41C325.538 128.363 323.168 128.849 320.775 128.837H313.64V92.9269H320.775C323.168 92.9174 325.537 93.4032 327.733 94.3537C329.847 95.2454 331.762 96.548 333.368 98.1859C334.974 99.8237 336.239 101.764 337.089 103.895C338.925 108.397 338.925 113.438 337.089 117.94L337.108 117.935Z" fill="black"/>
</svg>
