<svg width="505" height="346" viewBox="0 0 505 346" fill="none" xmlns="http://www.w3.org/2000/svg">
<path d="M170.834 292.127C171.202 296.359 170.455 300.467 168.595 304.451C166.723 308.29 163.965 311.249 160.323 313.329C159.206 314.014 156.411 314.845 151.938 315.821C147.452 316.651 142.601 317.513 137.385 318.407C132.169 319.301 127.172 320.175 122.395 321.031C117.763 321.874 114.504 322.45 112.62 322.761C112.397 325.28 111.382 327.132 109.573 328.319C107.752 329.359 105.747 329.974 103.558 330.164C101.077 330.379 98.1994 330.261 94.9255 329.81C91.6516 329.359 88.7362 328.803 86.1793 328.142C79.6881 329.588 73.1303 331.112 66.5059 332.716C59.8814 334.32 53.1397 335.42 46.2807 336.015C41.027 336.471 38.1849 334.218 37.7545 329.256C37.324 324.294 38.3813 320.379 40.9262 317.512C43.4711 314.644 46.6567 312.383 50.483 310.728C54.3094 309.073 58.4655 307.83 62.9516 307C67.4376 306.169 71.4066 305.31 74.8584 304.423C70.5332 263.04 66.1603 221.956 61.7398 181.17C57.4653 140.371 53.5302 99.2484 49.9347 57.8025C43.9893 58.7593 38.1898 59.7036 32.5363 60.6351C26.8701 61.4207 21.1912 62.0604 15.4997 62.5542C14.3322 62.6555 13.0918 62.7631 11.7784 62.877C10.4523 62.845 9.19282 62.7337 8.00001 62.5431C6.94048 62.194 6.01422 61.6862 5.22124 61.0198C4.26966 60.2201 3.72424 59.0177 3.58497 57.4124C3.34443 54.6396 3.71928 52.181 4.70952 50.0366C5.68711 47.7463 7.06751 45.8621 8.85074 44.3841C10.7672 42.7475 12.855 41.3901 15.114 40.3119C17.373 39.2337 19.724 38.3681 22.167 37.7151C28.3409 36.0032 34.6069 34.5039 40.9648 33.2172C47.4559 31.7718 53.8805 30.4058 60.2384 29.1191C66.7295 27.6737 73.1477 26.2347 79.493 24.8021C85.9841 23.3567 92.377 21.6259 98.6716 19.6094C104.687 17.7643 110.671 15.5543 116.623 12.9794C122.562 10.2587 128.743 8.61976 135.164 8.0627C138.666 7.75886 141.115 8.86972 142.51 11.3953C143.893 13.7749 144.717 16.4971 144.983 19.5617C145.199 22.0426 145.116 24.4759 144.734 26.8615C144.487 29.0886 143.649 31.2933 142.22 33.4756C141.446 34.7191 139.577 36.0575 136.614 37.4908C133.784 38.7656 130.291 40.0244 126.134 41.2671C122.124 42.4972 117.749 43.759 113.009 45.0524C108.403 46.1872 103.869 47.3157 99.4081 48.4378C95.0807 49.4014 91.1117 50.2603 87.5013 51.0146C83.8909 51.769 81.2164 52.2951 79.4778 52.5929C82.8429 72.7388 85.6972 92.929 88.0407 113.163C90.5302 133.385 92.8737 153.62 95.0713 173.867C97.2689 194.114 99.4665 214.361 101.664 234.608C103.862 254.856 106.424 275.071 109.351 295.255C117.556 293.22 125.84 291.251 134.203 289.35C142.553 287.302 151.033 285.905 159.643 285.158C162.124 284.942 164.51 285.324 166.8 286.301C169.224 287.12 170.569 289.062 170.834 292.127Z" fill="#FF6666"/>
<path d="M254.366 261.732C253.659 272.549 251.236 282.666 247.096 292.084C242.957 301.502 237.36 309.65 230.304 316.529C223.404 323.27 215.211 328.46 205.725 332.096C196.229 335.879 185.854 337.403 174.598 336.666C164.659 336.016 155.555 333.806 147.287 330.036C139.156 326.421 132.208 321.563 126.441 315.46C120.675 309.358 116.305 302.1 113.333 293.684C110.506 285.279 109.423 276.033 110.082 265.947C110.216 263.901 110.457 261.348 110.804 258.288C111.151 255.228 111.78 252.333 112.693 249.603C113.761 246.737 115.088 244.402 116.674 242.597C118.416 240.656 120.749 239.781 123.672 239.972C126.011 240.125 128.535 240.804 131.246 242.009C134.112 243.077 136.735 244.497 139.114 246.267C141.494 248.037 143.411 250.145 144.866 252.589C146.477 254.896 147.196 257.365 147.024 259.996L146.192 272.713C145.533 282.799 147.697 291.235 152.684 298.02C157.828 304.669 165.589 308.332 175.967 309.011C183.276 309.489 189.671 308.219 195.153 305.202C200.635 302.184 205.156 298.149 208.716 293.097C212.422 288.055 215.216 282.366 217.099 276.03C219.137 269.557 220.362 263.178 220.773 256.893C221.576 244.614 219.797 232.534 215.436 220.652C211.222 208.779 205.672 197.113 198.789 185.653C191.914 174.046 184.368 162.616 176.149 151.363C167.931 140.109 160.365 128.971 153.453 117.95C146.54 106.928 140.87 95.9879 136.442 85.1289C132.161 74.2794 130.378 63.3733 131.096 52.4104C131.679 43.4939 133.935 35.9346 137.864 29.7325C141.948 23.3937 147.048 18.3692 153.162 14.6588C159.433 10.8118 166.357 8.18196 173.936 6.76932C181.671 5.22006 189.558 4.70836 197.598 5.2342C207.391 5.87476 216.071 7.83704 223.636 11.121C231.202 14.405 237.516 18.855 242.581 24.4709C247.645 30.0869 251.312 36.8592 253.583 44.788C256.009 52.5801 256.902 61.373 256.261 71.1665C256.166 72.6282 255.973 74.4506 255.684 76.6336C255.394 78.8166 254.885 80.9853 254.157 83.1397C253.438 85.1478 252.442 86.9176 251.167 88.449C249.902 89.8343 248.247 90.4599 246.2 90.3261C243.277 90.1349 240.401 89.2128 237.573 87.5599C235.174 86.0818 233.209 84.7055 231.678 83.4309C230.302 82.0198 229.224 80.5547 228.442 79.0356C227.67 77.3703 227.127 75.5732 226.813 73.6443C226.499 71.7154 226.286 69.3527 226.176 66.5563C225.789 61.2464 225.15 56.4336 224.258 52.1181C223.365 47.8027 221.846 44.1067 219.698 41.0303C217.551 37.9539 214.629 35.4875 210.934 33.631C207.239 31.7745 202.394 30.6503 196.401 30.2583C192.162 29.981 188.041 30.1519 184.037 30.7707C180.179 31.3992 176.721 32.641 173.664 34.4962C170.753 36.361 168.31 38.917 166.337 42.1642C164.518 45.2748 163.451 49.242 163.136 54.0656C162.696 60.7896 163.708 67.7552 166.173 74.9627C168.784 82.1798 172.262 89.6003 176.608 97.2244C181.099 104.858 186.161 112.749 191.794 120.898C197.582 128.91 203.498 137.224 209.54 145.84C215.582 154.456 221.386 163.35 226.952 172.521C232.673 181.557 237.64 190.91 241.851 200.58C246.209 210.26 249.52 220.239 251.784 230.516C254.204 240.656 255.064 251.062 254.366 261.732Z" fill="#5182FF"/>
<path d="M254.366 261.732C253.659 272.549 251.236 282.666 247.096 292.084C242.957 301.502 237.36 309.65 230.304 316.529C223.404 323.27 215.211 328.46 205.725 332.096C196.229 335.879 185.854 337.403 174.598 336.666C164.659 336.016 155.555 333.806 147.287 330.036C139.156 326.421 132.208 321.563 126.441 315.46C120.675 309.358 116.305 302.1 113.333 293.684C110.506 285.279 109.423 276.033 110.082 265.947C110.216 263.901 110.457 261.348 110.804 258.288C111.151 255.228 111.78 252.333 112.693 249.603C113.761 246.737 115.088 244.402 116.674 242.597C118.416 240.656 120.749 239.781 123.672 239.972C126.011 240.125 128.535 240.804 131.246 242.009C134.112 243.077 136.735 244.497 139.114 246.267C141.494 248.037 143.411 250.145 144.866 252.589C146.477 254.896 147.196 257.365 147.024 259.996L146.192 272.713C145.533 282.799 147.697 291.235 152.684 298.02C157.828 304.669 165.589 308.332 175.967 309.011C183.276 309.489 189.671 308.219 195.153 305.202C200.635 302.184 205.156 298.149 208.716 293.097C212.422 288.055 215.216 282.366 217.099 276.03C219.137 269.557 220.362 263.178 220.773 256.893C221.576 244.614 219.797 232.534 215.436 220.652C211.222 208.779 205.672 197.113 198.789 185.653C191.914 174.046 184.368 162.616 176.149 151.363C167.931 140.109 160.365 128.971 153.453 117.95C146.54 106.928 140.87 95.9879 136.442 85.1289C132.161 74.2794 130.378 63.3733 131.096 52.4104C131.679 43.4939 133.935 35.9346 137.864 29.7325C141.948 23.3937 147.048 18.3692 153.162 14.6588C159.433 10.8118 166.357 8.18196 173.936 6.76932C181.671 5.22006 189.558 4.70836 197.598 5.2342C207.391 5.87476 216.071 7.83704 223.636 11.121C231.202 14.405 237.516 18.855 242.581 24.4709C247.645 30.0869 251.312 36.8592 253.583 44.788C256.009 52.5801 256.902 61.373 256.261 71.1665C256.166 72.6282 255.973 74.4506 255.684 76.6336C255.394 78.8166 254.885 80.9853 254.157 83.1397C253.438 85.1478 252.442 86.9176 251.167 88.449C249.902 89.8343 248.247 90.4599 246.2 90.3261C243.277 90.1349 240.401 89.2128 237.573 87.5599C235.174 86.0818 233.209 84.7055 231.678 83.4309C230.302 82.0198 229.224 80.5547 228.442 79.0356C227.67 77.3703 227.127 75.5732 226.813 73.6443C226.499 71.7154 226.286 69.3527 226.176 66.5563C225.789 61.2464 225.15 56.4336 224.258 52.1181C223.365 47.8027 221.846 44.1067 219.698 41.0303C217.551 37.9539 214.629 35.4875 210.934 33.631C207.239 31.7745 202.394 30.6503 196.401 30.2583C192.162 29.981 188.041 30.1519 184.037 30.7707C180.179 31.3992 176.721 32.641 173.664 34.4962C170.753 36.361 168.31 38.917 166.337 42.1642C164.518 45.2748 163.451 49.242 163.136 54.0656C162.696 60.7896 163.708 67.7552 166.173 74.9627C168.784 82.1798 172.262 89.6003 176.608 97.2244C181.099 104.858 186.161 112.749 191.794 120.898C197.582 128.91 203.498 137.224 209.54 145.84C215.582 154.456 221.386 163.35 226.952 172.521C232.673 181.557 237.64 190.91 241.851 200.58C246.209 210.26 249.52 220.239 251.784 230.516C254.204 240.656 255.064 251.062 254.366 261.732Z" fill="#5182FF"/>
<path d="M254.366 261.732C253.659 272.549 251.236 282.666 247.096 292.084C242.957 301.502 237.36 309.65 230.304 316.529C223.404 323.27 215.211 328.46 205.725 332.096C196.229 335.879 185.854 337.403 174.598 336.666C164.659 336.016 155.555 333.806 147.287 330.036C139.156 326.421 132.208 321.563 126.441 315.46C120.675 309.358 116.305 302.1 113.333 293.684C110.506 285.279 109.423 276.033 110.082 265.947C110.216 263.901 110.457 261.348 110.804 258.288C111.151 255.228 111.78 252.333 112.693 249.603C113.761 246.737 115.088 244.402 116.674 242.597C118.416 240.656 120.749 239.781 123.672 239.972C126.011 240.125 128.535 240.804 131.246 242.009C134.112 243.077 136.735 244.497 139.114 246.267C141.494 248.037 143.411 250.145 144.866 252.589C146.477 254.896 147.196 257.365 147.024 259.996L146.192 272.713C145.533 282.799 147.697 291.235 152.684 298.02C157.828 304.669 165.589 308.332 175.967 309.011C183.276 309.489 189.671 308.219 195.153 305.202C200.635 302.184 205.156 298.149 208.716 293.097C212.422 288.055 215.216 282.366 217.099 276.03C219.137 269.557 220.362 263.178 220.773 256.893C221.576 244.614 219.797 232.534 215.436 220.652C211.222 208.779 205.672 197.113 198.789 185.653C191.914 174.046 184.368 162.616 176.149 151.363C167.931 140.109 160.365 128.971 153.453 117.95C146.54 106.928 140.87 95.9879 136.442 85.1289C132.161 74.2794 130.378 63.3733 131.096 52.4104C131.679 43.4939 133.935 35.9346 137.864 29.7325C141.948 23.3937 147.048 18.3692 153.162 14.6588C159.433 10.8118 166.357 8.18196 173.936 6.76932C181.671 5.22006 189.558 4.70836 197.598 5.2342C207.391 5.87476 216.071 7.83704 223.636 11.121C231.202 14.405 237.516 18.855 242.581 24.4709C247.645 30.0869 251.312 36.8592 253.583 44.788C256.009 52.5801 256.902 61.373 256.261 71.1665C256.166 72.6282 255.973 74.4506 255.684 76.6336C255.394 78.8166 254.885 80.9853 254.157 83.1397C253.438 85.1478 252.442 86.9176 251.167 88.449C249.902 89.8343 248.247 90.4599 246.2 90.3261C243.277 90.1349 240.401 89.2128 237.573 87.5599C235.174 86.0818 233.209 84.7055 231.678 83.4309C230.302 82.0198 229.224 80.5547 228.442 79.0356C227.67 77.3703 227.127 75.5732 226.813 73.6443C226.499 71.7154 226.286 69.3527 226.176 66.5563C225.789 61.2464 225.15 56.4336 224.258 52.1181C223.365 47.8027 221.846 44.1067 219.698 41.0303C217.551 37.9539 214.629 35.4875 210.934 33.631C207.239 31.7745 202.394 30.6503 196.401 30.2583C192.162 29.981 188.041 30.1519 184.037 30.7707C180.179 31.3992 176.721 32.641 173.664 34.4962C170.753 36.361 168.31 38.917 166.337 42.1642C164.518 45.2748 163.451 49.242 163.136 54.0656C162.696 60.7896 163.708 67.7552 166.173 74.9627C168.784 82.1798 172.262 89.6003 176.608 97.2244C181.099 104.858 186.161 112.749 191.794 120.898C197.582 128.91 203.498 137.224 209.54 145.84C215.582 154.456 221.386 163.35 226.952 172.521C232.673 181.557 237.64 190.91 241.851 200.58C246.209 210.26 249.52 220.239 251.784 230.516C254.204 240.656 255.064 251.062 254.366 261.732Z" fill="#5182FF"/>
<path d="M360.844 20.9387C360.91 26.2117 359.426 30.5519 356.392 33.9593C353.505 37.3649 349.505 39.6857 344.393 40.9217C336.213 42.7821 327.803 43.8396 319.163 44.0943C310.667 44.2007 302.248 44.5259 293.904 45.0699L294.449 88.5724C294.911 125.484 296.471 162.308 299.129 199.045C301.931 235.634 306.126 272.278 311.713 308.979C312.18 311.171 312.647 313.362 313.113 315.554C313.727 317.743 314.047 319.937 314.075 322.134C314.119 325.649 313.199 328.225 311.315 329.86C309.577 331.493 307.024 332.33 303.655 332.373C301.019 332.406 297.719 332.081 293.755 331.398C289.939 330.86 286.924 329.945 284.711 328.655C281.759 326.934 279.833 325.2 278.932 323.453C278.176 321.558 277.559 319.075 277.081 316.005C275.34 305.626 274.111 295.24 273.395 284.848C272.679 274.455 271.889 264.064 271.027 253.674C268.99 231.432 267.247 209.259 265.799 187.157C264.35 165.054 263.486 142.871 263.207 120.607C263.055 108.45 262.977 96.3646 262.973 84.352C262.969 72.3394 262.889 60.108 262.733 47.6578C253.663 48.6503 244.519 49.6438 235.302 50.6382C226.232 51.6308 217.083 52.1849 207.855 52.3005C205.658 52.328 203.894 51.8374 202.563 50.8286C201.084 49.6751 200.33 47.9999 200.303 45.8028C200.238 40.6762 201.873 36.7003 205.207 33.8752C208.539 30.9035 212.542 28.8024 217.214 27.572C224.664 25.8672 232.268 24.7465 240.025 24.2098C247.781 23.5267 255.535 22.6971 263.287 21.7211C263.269 20.2563 263.325 18.8639 263.455 17.5438C263.583 16.0773 263.86 14.8286 264.287 13.7978C264.858 12.6186 265.652 11.6565 266.668 10.9113C267.684 10.1661 269.144 9.78154 271.048 9.75769C274.563 9.71366 278.162 10.4743 281.844 12.0397C285.526 13.605 288.411 15.8396 290.498 18.7433L326.92 14.3318C330.43 13.8483 333.94 13.3649 337.45 12.8814C340.958 12.2515 344.47 11.9145 347.985 11.8705C349.596 11.8503 351.135 11.9043 352.602 12.0324C354.215 12.1587 355.612 12.5807 356.793 13.2984C357.972 13.8696 358.936 14.8098 359.685 16.1188C360.432 17.2815 360.818 18.8881 360.844 20.9387Z" fill="#D251FF"/>
<path d="M503.748 33.0939C503.145 39.1839 501.322 43.6156 498.28 46.3891C495.405 49.0255 491.852 50.749 487.62 51.5597C483.389 52.3705 478.822 52.6868 473.92 52.5086C469.185 52.1933 464.656 52.129 460.333 52.3156L447.865 52.4641C448.697 79.7592 448.159 106.919 446.25 133.942C444.509 160.829 442.281 187.974 439.566 215.379C438.721 223.905 437.595 232.941 436.189 242.488C434.797 251.882 432.796 261.216 430.186 270.489C427.591 279.611 424.273 288.276 420.231 296.485C416.189 304.694 411.103 311.801 404.974 317.805C398.859 323.656 391.571 328.161 383.11 331.32C374.663 334.327 364.807 335.273 353.541 334.156C340.599 332.874 329.3 328.988 319.642 322.496C310.152 315.867 302.35 307.715 296.236 298.038C290.123 288.362 285.805 277.633 283.282 265.852C280.774 253.919 280.109 242.015 281.285 230.14C281.526 227.704 281.995 223.753 282.69 218.287C283.537 212.836 284.697 207.339 286.169 201.796C287.807 196.117 289.828 191.243 292.229 187.176C294.798 182.972 297.833 181.044 301.335 181.391C303.314 181.587 305.698 182.361 308.485 183.713C311.439 184.928 314.128 186.501 316.55 188.433C319.125 190.379 321.212 192.584 322.813 195.049C324.581 197.377 325.344 199.758 325.103 202.194C324.53 207.98 323.287 213.545 321.374 218.89C319.46 224.236 318.217 229.801 317.644 235.587C317.026 241.829 317.253 248.847 318.326 256.64C319.398 264.434 321.422 271.937 324.398 279.15C327.388 286.211 331.397 292.297 336.426 297.407C341.607 302.533 347.927 305.465 355.387 306.204C360.868 306.747 365.61 306.218 369.612 304.616C373.782 302.876 377.327 300.46 380.247 297.367C383.334 294.137 385.858 290.389 387.818 286.125C389.93 281.876 391.745 277.52 393.263 273.058C398.289 258.028 401.806 242.694 403.817 227.058C405.994 211.284 407.882 195.328 409.481 179.19C411.548 158.332 413.081 137.421 414.082 116.457C415.235 95.5084 415.55 74.4767 415.028 53.3621C404.555 53.5545 394.226 53.838 384.042 54.2128C373.857 54.5875 363.589 54.2621 353.236 53.2364C350.648 52.98 348.645 52.2435 347.228 51.0269C345.964 49.8254 345.467 47.8545 345.738 45.114C346.266 39.7852 348.265 35.909 351.733 33.4852C355.217 30.9093 359.455 29.2536 364.448 28.5183C372.744 27.0339 381.123 26.2498 389.588 26.1659C398.219 25.9448 406.706 25.6325 415.048 25.229L415.41 21.575C415.667 18.9868 416.738 17.4786 418.626 17.0506C420.528 16.4704 422.545 16.2859 424.677 16.497C427.874 16.8138 430.95 17.5797 433.904 18.7949C436.859 20.01 439.525 21.8116 441.902 24.1995C450.563 23.6739 459.172 22.9124 467.726 21.915C476.448 20.7804 485.301 20.6581 494.283 21.548C497.481 21.8647 499.895 23.1032 501.526 25.2634C503.324 27.2865 504.065 29.8967 503.748 33.0939Z" fill="#00D192"/>
</svg>
