<svg width="30" height="30" viewBox="0 0 30 30" fill="none" xmlns="http://www.w3.org/2000/svg">
<path d="M15 29.9999C23.2842 29.9999 29.9999 23.2842 29.9999 15C29.9999 6.71571 23.2842 0 15 0C6.71571 0 0 6.71571 0 15C0 23.2842 6.71571 29.9999 15 29.9999Z" fill="#EA5220"/>
<path d="M8.51058 12.5129C9.93866 12.5129 11.0963 11.3552 11.0963 9.92708C11.0963 8.499 9.93866 7.34131 8.51058 7.34131C7.08249 7.34131 5.9248 8.499 5.9248 9.92708C5.9248 11.3552 7.08249 12.5129 8.51058 12.5129Z" fill="white"/>
<path d="M15.0008 12.5129C16.4289 12.5129 17.5866 11.3552 17.5866 9.92708C17.5866 8.499 16.4289 7.34131 15.0008 7.34131C13.5727 7.34131 12.415 8.499 12.415 9.92708C12.415 11.3552 13.5727 12.5129 15.0008 12.5129Z" fill="white"/>
<path d="M15.0008 19.0026C16.4289 19.0026 17.5866 17.8449 17.5866 16.4168C17.5866 14.9887 16.4289 13.8311 15.0008 13.8311C13.5727 13.8311 12.415 14.9887 12.415 16.4168C12.415 17.8449 13.5727 19.0026 15.0008 19.0026Z" fill="white"/>
<path d="M15.0008 25.4923C16.4289 25.4923 17.5866 24.3347 17.5866 22.9066C17.5866 21.4785 16.4289 20.3208 15.0008 20.3208C13.5727 20.3208 12.415 21.4785 12.415 22.9066C12.415 24.3347 13.5727 25.4923 15.0008 25.4923Z" fill="white"/>
<path d="M21.4901 12.5129C22.9182 12.5129 24.0758 11.3552 24.0758 9.92708C24.0758 8.499 22.9182 7.34131 21.4901 7.34131C20.062 7.34131 18.9043 8.499 18.9043 9.92708C18.9043 11.3552 20.062 12.5129 21.4901 12.5129Z" fill="white"/>
</svg>
